<mxfile host="app.diagrams.net" modified="2023-08-12T03:45:35.311Z" agent="Mozilla/5.0 (Windows NT 10.0; Win64; x64) AppleWebKit/537.36 (KHTML, like Gecko) Chrome/115.0.0.0 Safari/537.36" etag="IvvElzSO8KRhFZ3Qwrcd" version="21.6.8" type="github">
  <diagram name="Page-1" id="58cdce13-f638-feb5-8d6f-7d28b1aa9fa0">
    <mxGraphModel dx="1050" dy="574" grid="1" gridSize="10" guides="1" tooltips="1" connect="1" arrows="1" fold="1" page="1" pageScale="1" pageWidth="1100" pageHeight="850" background="none" math="0" shadow="0">
      <root>
        <mxCell id="0" />
        <mxCell id="1" parent="0" />
        <mxCell id="382b91b5511bd0f7-1" value="" style="ellipse;html=1;shape=startState;fillColor=#000000;strokeColor=#ff0000;rounded=1;shadow=0;comic=0;labelBackgroundColor=none;fontFamily=Verdana;fontSize=12;fontColor=#000000;align=center;direction=south;" parent="1" vertex="1">
          <mxGeometry x="130" y="135" width="30" height="30" as="geometry" />
        </mxCell>
        <mxCell id="382b91b5511bd0f7-5" value="Activity" style="rounded=1;whiteSpace=wrap;html=1;arcSize=24;fillColor=#ffffc0;strokeColor=#ff0000;shadow=0;comic=0;labelBackgroundColor=none;fontFamily=Verdana;fontSize=12;fontColor=#000000;align=center;" parent="1" vertex="1">
          <mxGeometry x="240" y="310" width="120" height="60" as="geometry" />
        </mxCell>
        <mxCell id="382b91b5511bd0f7-6" value="Activity" style="rounded=1;whiteSpace=wrap;html=1;arcSize=24;fillColor=#ffffc0;strokeColor=#ff0000;shadow=0;comic=0;labelBackgroundColor=none;fontFamily=Verdana;fontSize=12;fontColor=#000000;align=center;" parent="1" vertex="1">
          <mxGeometry x="240" y="120" width="120" height="60" as="geometry" />
        </mxCell>
        <mxCell id="3cde6dad864a17aa-3" style="edgeStyle=orthogonalEdgeStyle;html=1;exitX=1;exitY=0.25;entryX=0.25;entryY=0;labelBackgroundColor=none;endArrow=open;endSize=8;strokeColor=#ff0000;fontFamily=Verdana;fontSize=12;align=left;" parent="1" source="382b91b5511bd0f7-7" target="382b91b5511bd0f7-9" edge="1">
          <mxGeometry relative="1" as="geometry" />
        </mxCell>
        <mxCell id="382b91b5511bd0f7-7" value="Activity" style="rounded=1;whiteSpace=wrap;html=1;arcSize=24;fillColor=#ffffc0;strokeColor=#ff0000;shadow=0;comic=0;labelBackgroundColor=none;fontFamily=Verdana;fontSize=12;fontColor=#000000;align=center;" parent="1" vertex="1">
          <mxGeometry x="440" y="200" width="120" height="60" as="geometry" />
        </mxCell>
        <mxCell id="3cde6dad864a17aa-4" style="edgeStyle=orthogonalEdgeStyle;html=1;exitX=0.75;exitY=0;entryX=1;entryY=0.5;labelBackgroundColor=none;endArrow=open;endSize=8;strokeColor=#ff0000;fontFamily=Verdana;fontSize=12;align=left;" parent="1" source="382b91b5511bd0f7-9" target="382b91b5511bd0f7-6" edge="1">
          <mxGeometry relative="1" as="geometry">
            <Array as="points">
              <mxPoint x="880" y="150" />
            </Array>
          </mxGeometry>
        </mxCell>
        <mxCell id="3cde6dad864a17aa-13" style="edgeStyle=elbowEdgeStyle;html=1;exitX=0;exitY=0.75;entryX=1;entryY=0.75;labelBackgroundColor=none;endArrow=open;endSize=8;strokeColor=#ff0000;fontFamily=Verdana;fontSize=12;align=left;" parent="1" source="382b91b5511bd0f7-9" target="382b91b5511bd0f7-10" edge="1">
          <mxGeometry relative="1" as="geometry" />
        </mxCell>
        <mxCell id="382b91b5511bd0f7-9" value="Activity" style="rounded=1;whiteSpace=wrap;html=1;arcSize=24;fillColor=#ffffc0;strokeColor=#ff0000;shadow=0;comic=0;labelBackgroundColor=none;fontFamily=Verdana;fontSize=12;fontColor=#000000;align=center;" parent="1" vertex="1">
          <mxGeometry x="790" y="310" width="120" height="60" as="geometry" />
        </mxCell>
        <mxCell id="382b91b5511bd0f7-10" value="Activity" style="rounded=1;whiteSpace=wrap;html=1;arcSize=24;fillColor=#ffffc0;strokeColor=#ff0000;shadow=0;comic=0;labelBackgroundColor=none;fontFamily=Verdana;fontSize=12;fontColor=#000000;align=center;" parent="1" vertex="1">
          <mxGeometry x="520" y="310" width="120" height="60" as="geometry" />
        </mxCell>
        <mxCell id="3cde6dad864a17aa-5" style="edgeStyle=elbowEdgeStyle;html=1;labelBackgroundColor=none;endArrow=open;endSize=8;strokeColor=#ff0000;fontFamily=Verdana;fontSize=12;align=left;" parent="1" source="2a3bc250acf0617d-7" target="382b91b5511bd0f7-9" edge="1">
          <mxGeometry relative="1" as="geometry" />
        </mxCell>
        <mxCell id="2a3bc250acf0617d-7" value="Container" style="swimlane;whiteSpace=wrap;html=1;rounded=1;shadow=0;comic=0;labelBackgroundColor=none;strokeWidth=1;fontFamily=Verdana;fontSize=12;align=center;" parent="1" vertex="1">
          <mxGeometry x="95" y="495" width="930" height="200" as="geometry" />
        </mxCell>
        <mxCell id="3cde6dad864a17aa-10" style="edgeStyle=elbowEdgeStyle;html=1;labelBackgroundColor=none;endArrow=open;endSize=8;strokeColor=#ff0000;fontFamily=Verdana;fontSize=12;align=left;" parent="2a3bc250acf0617d-7" source="382b91b5511bd0f7-8" target="3cde6dad864a17aa-1" edge="1">
          <mxGeometry relative="1" as="geometry" />
        </mxCell>
        <mxCell id="382b91b5511bd0f7-8" value="Activity" style="rounded=1;whiteSpace=wrap;html=1;arcSize=24;fillColor=#ffffc0;strokeColor=#ff0000;shadow=0;comic=0;labelBackgroundColor=none;fontFamily=Verdana;fontSize=12;fontColor=#000000;align=center;" parent="2a3bc250acf0617d-7" vertex="1">
          <mxGeometry x="215" y="65" width="120" height="60" as="geometry" />
        </mxCell>
        <mxCell id="24f968d109e7d6b4-3" value="" style="ellipse;html=1;shape=endState;fillColor=#000000;strokeColor=#ff0000;rounded=1;shadow=0;comic=0;labelBackgroundColor=none;fontFamily=Verdana;fontSize=12;fontColor=#000000;align=center;" parent="2a3bc250acf0617d-7" vertex="1">
          <mxGeometry x="815" y="80" width="30" height="30" as="geometry" />
        </mxCell>
        <mxCell id="3cde6dad864a17aa-9" style="edgeStyle=elbowEdgeStyle;html=1;labelBackgroundColor=none;endArrow=open;endSize=8;strokeColor=#ff0000;fontFamily=Verdana;fontSize=12;align=left;" parent="2a3bc250acf0617d-7" source="2a3bc250acf0617d-3" target="382b91b5511bd0f7-8" edge="1">
          <mxGeometry relative="1" as="geometry" />
        </mxCell>
        <mxCell id="2a3bc250acf0617d-3" value="" style="ellipse;html=1;shape=startState;fillColor=#000000;strokeColor=#ff0000;rounded=1;shadow=0;comic=0;labelBackgroundColor=none;fontFamily=Verdana;fontSize=12;fontColor=#000000;align=center;direction=south;" parent="2a3bc250acf0617d-7" vertex="1">
          <mxGeometry x="75" y="80" width="30" height="30" as="geometry" />
        </mxCell>
        <mxCell id="3cde6dad864a17aa-11" style="edgeStyle=elbowEdgeStyle;html=1;labelBackgroundColor=none;endArrow=open;endSize=8;strokeColor=#ff0000;fontFamily=Verdana;fontSize=12;align=left;" parent="2a3bc250acf0617d-7" source="3cde6dad864a17aa-1" target="3cde6dad864a17aa-2" edge="1">
          <mxGeometry relative="1" as="geometry" />
        </mxCell>
        <mxCell id="3cde6dad864a17aa-1" value="Activity" style="rounded=1;whiteSpace=wrap;html=1;arcSize=24;fillColor=#ffffc0;strokeColor=#ff0000;shadow=0;comic=0;labelBackgroundColor=none;fontFamily=Verdana;fontSize=12;fontColor=#000000;align=center;" parent="2a3bc250acf0617d-7" vertex="1">
          <mxGeometry x="400" y="65" width="120" height="60" as="geometry" />
        </mxCell>
        <mxCell id="3cde6dad864a17aa-12" style="edgeStyle=elbowEdgeStyle;html=1;labelBackgroundColor=none;endArrow=open;endSize=8;strokeColor=#ff0000;fontFamily=Verdana;fontSize=12;align=left;" parent="2a3bc250acf0617d-7" source="3cde6dad864a17aa-2" target="24f968d109e7d6b4-3" edge="1">
          <mxGeometry relative="1" as="geometry" />
        </mxCell>
        <mxCell id="3cde6dad864a17aa-2" value="Activity" style="rounded=1;whiteSpace=wrap;html=1;arcSize=24;fillColor=#ffffc0;strokeColor=#ff0000;shadow=0;comic=0;labelBackgroundColor=none;fontFamily=Verdana;fontSize=12;fontColor=#000000;align=center;" parent="2a3bc250acf0617d-7" vertex="1">
          <mxGeometry x="585" y="65" width="120" height="60" as="geometry" />
        </mxCell>
        <mxCell id="2a3bc250acf0617d-8" value="frame" style="shape=umlFrame;whiteSpace=wrap;html=1;rounded=1;shadow=0;comic=0;labelBackgroundColor=none;strokeWidth=1;fontFamily=Verdana;fontSize=12;align=center;movable=1;resizable=1;rotatable=1;deletable=1;editable=1;locked=0;connectable=1;" parent="1" vertex="1">
          <mxGeometry x="30" y="35" width="1050" height="695" as="geometry" />
        </mxCell>
        <mxCell id="2a3bc250acf0617d-9" style="edgeStyle=orthogonalEdgeStyle;html=1;labelBackgroundColor=none;endArrow=open;endSize=8;strokeColor=#ff0000;fontFamily=Verdana;fontSize=12;align=left;" parent="1" source="382b91b5511bd0f7-1" target="382b91b5511bd0f7-6" edge="1">
          <mxGeometry relative="1" as="geometry" />
        </mxCell>
        <mxCell id="2a3bc250acf0617d-10" style="edgeStyle=orthogonalEdgeStyle;html=1;labelBackgroundColor=none;endArrow=open;endSize=8;strokeColor=#ff0000;fontFamily=Verdana;fontSize=12;align=left;entryX=0;entryY=0.5;" parent="1" source="382b91b5511bd0f7-6" target="382b91b5511bd0f7-7" edge="1">
          <mxGeometry relative="1" as="geometry">
            <Array as="points">
              <mxPoint x="330" y="230" />
            </Array>
          </mxGeometry>
        </mxCell>
        <mxCell id="2a3bc250acf0617d-11" style="edgeStyle=orthogonalEdgeStyle;html=1;entryX=0.75;entryY=0;labelBackgroundColor=none;endArrow=open;endSize=8;strokeColor=#ff0000;fontFamily=Verdana;fontSize=12;align=left;exitX=0.5;exitY=1;" parent="1" source="382b91b5511bd0f7-7" target="382b91b5511bd0f7-5" edge="1">
          <mxGeometry relative="1" as="geometry">
            <mxPoint x="520" y="300" as="sourcePoint" />
            <Array as="points">
              <mxPoint x="500" y="290" />
              <mxPoint x="330" y="290" />
            </Array>
          </mxGeometry>
        </mxCell>
        <mxCell id="2a3bc250acf0617d-12" style="edgeStyle=orthogonalEdgeStyle;html=1;exitX=0.25;exitY=0;entryX=0.25;entryY=1;labelBackgroundColor=none;endArrow=open;endSize=8;strokeColor=#ff0000;fontFamily=Verdana;fontSize=12;align=left;" parent="1" source="382b91b5511bd0f7-5" target="382b91b5511bd0f7-6" edge="1">
          <mxGeometry relative="1" as="geometry" />
        </mxCell>
        <mxCell id="2a3bc250acf0617d-13" style="edgeStyle=orthogonalEdgeStyle;html=1;exitX=1;exitY=0.5;entryX=0;entryY=0.5;labelBackgroundColor=none;endArrow=open;endSize=8;strokeColor=#ff0000;fontFamily=Verdana;fontSize=12;align=left;" parent="1" source="382b91b5511bd0f7-5" target="382b91b5511bd0f7-10" edge="1">
          <mxGeometry relative="1" as="geometry" />
        </mxCell>
        <mxCell id="2a3bc250acf0617d-14" style="edgeStyle=orthogonalEdgeStyle;html=1;exitX=0.5;exitY=0;entryX=1;entryY=0.75;labelBackgroundColor=none;endArrow=open;endSize=8;strokeColor=#ff0000;fontFamily=Verdana;fontSize=12;align=left;" parent="1" source="382b91b5511bd0f7-10" target="382b91b5511bd0f7-7" edge="1">
          <mxGeometry relative="1" as="geometry" />
        </mxCell>
        <mxCell id="2a3bc250acf0617d-15" style="edgeStyle=orthogonalEdgeStyle;html=1;exitX=1;exitY=0.25;entryX=0;entryY=0.25;labelBackgroundColor=none;endArrow=open;endSize=8;strokeColor=#ff0000;fontFamily=Verdana;fontSize=12;align=left;" parent="1" source="382b91b5511bd0f7-10" target="382b91b5511bd0f7-9" edge="1">
          <mxGeometry relative="1" as="geometry" />
        </mxCell>
        <mxCell id="3cde6dad864a17aa-6" style="edgeStyle=elbowEdgeStyle;html=1;labelBackgroundColor=none;endArrow=open;endSize=8;strokeColor=#ff0000;fontFamily=Verdana;fontSize=12;align=left;entryX=0.75;entryY=1;" parent="1" source="2a3bc250acf0617d-7" target="382b91b5511bd0f7-5" edge="1">
          <mxGeometry relative="1" as="geometry">
            <mxPoint x="340" y="505" as="sourcePoint" />
            <mxPoint x="340" y="380" as="targetPoint" />
          </mxGeometry>
        </mxCell>
        <mxCell id="3cde6dad864a17aa-7" style="edgeStyle=elbowEdgeStyle;html=1;labelBackgroundColor=none;endArrow=open;endSize=8;strokeColor=#ff0000;fontFamily=Verdana;fontSize=12;align=left;entryX=0.5;entryY=1;" parent="1" source="2a3bc250acf0617d-7" target="382b91b5511bd0f7-5" edge="1">
          <mxGeometry relative="1" as="geometry">
            <mxPoint x="340" y="505" as="sourcePoint" />
            <mxPoint x="340" y="380" as="targetPoint" />
          </mxGeometry>
        </mxCell>
        <mxCell id="3cde6dad864a17aa-8" style="edgeStyle=elbowEdgeStyle;html=1;labelBackgroundColor=none;endArrow=open;endSize=8;strokeColor=#ff0000;fontFamily=Verdana;fontSize=12;align=left;exitX=0.25;exitY=1;" parent="1" source="382b91b5511bd0f7-5" target="2a3bc250acf0617d-7" edge="1">
          <mxGeometry relative="1" as="geometry">
            <mxPoint x="350" y="515" as="sourcePoint" />
            <mxPoint x="350" y="390" as="targetPoint" />
          </mxGeometry>
        </mxCell>
        <mxCell id="sTs45CZRdDoFSn7NXeSg-1" value="抵扣勾选" style="whiteSpace=wrap;html=1;rounded=1;aspect=fixed;fillColor=#d5e8d4;strokeColor=#82b366;" parent="1" vertex="1">
          <mxGeometry x="259" y="880" width="80" height="40" as="geometry" />
        </mxCell>
        <mxCell id="sTs45CZRdDoFSn7NXeSg-2" value="不抵扣勾选" style="whiteSpace=wrap;html=1;rounded=1;aspect=fixed;fillColor=#f5f5f5;fontColor=#333333;strokeColor=#666666;" parent="1" vertex="1">
          <mxGeometry x="390" y="880" width="80" height="40" as="geometry" />
        </mxCell>
        <mxCell id="sTs45CZRdDoFSn7NXeSg-3" value="逾期抵扣" style="whiteSpace=wrap;html=1;rounded=1;aspect=fixed;fillColor=#f5f5f5;fontColor=#333333;strokeColor=#666666;" parent="1" vertex="1">
          <mxGeometry x="521" y="880" width="80" height="40" as="geometry" />
        </mxCell>
        <mxCell id="sTs45CZRdDoFSn7NXeSg-4" value="注销勾选" style="whiteSpace=wrap;html=1;rounded=1;aspect=fixed;fillColor=#d5e8d4;strokeColor=#82b366;" parent="1" vertex="1">
          <mxGeometry x="652" y="880" width="80" height="40" as="geometry" />
        </mxCell>
        <mxCell id="sTs45CZRdDoFSn7NXeSg-5" value="退税勾选" style="whiteSpace=wrap;html=1;rounded=1;aspect=fixed;fillColor=#d5e8d4;strokeColor=#82b366;" parent="1" vertex="1">
          <mxGeometry x="783" y="880" width="80" height="40" as="geometry" />
        </mxCell>
        <mxCell id="sTs45CZRdDoFSn7NXeSg-7" value="税款所属期" style="rounded=1;whiteSpace=wrap;html=1;aspect=fixed;fillColor=#fff2cc;strokeColor=#d6b656;" parent="1" vertex="1">
          <mxGeometry x="259" y="1041" width="80" height="40" as="geometry" />
        </mxCell>
        <mxCell id="sTs45CZRdDoFSn7NXeSg-9" value="取数" style="rounded=1;whiteSpace=wrap;html=1;fillColor=#fff2cc;strokeColor=#d6b656;" parent="1" vertex="1">
          <mxGeometry x="390" y="1041" width="80" height="40" as="geometry" />
        </mxCell>
        <mxCell id="sTs45CZRdDoFSn7NXeSg-10" value="勾选" style="rounded=1;whiteSpace=wrap;html=1;fillColor=#fff2cc;strokeColor=#d6b656;" parent="1" vertex="1">
          <mxGeometry x="521" y="1041" width="80" height="40" as="geometry" />
        </mxCell>
        <mxCell id="sTs45CZRdDoFSn7NXeSg-11" value="统计" style="rounded=1;whiteSpace=wrap;html=1;fillColor=#fff2cc;strokeColor=#d6b656;" parent="1" vertex="1">
          <mxGeometry x="652" y="1041" width="80" height="40" as="geometry" />
        </mxCell>
        <mxCell id="sTs45CZRdDoFSn7NXeSg-12" value="确认" style="rounded=1;whiteSpace=wrap;html=1;fillColor=#fff2cc;strokeColor=#d6b656;" parent="1" vertex="1">
          <mxGeometry x="783" y="1041" width="80" height="40" as="geometry" />
        </mxCell>
        <mxCell id="sTs45CZRdDoFSn7NXeSg-14" value="" style="ellipse;html=1;shape=endState;fillColor=#000000;strokeColor=#ff0000;" parent="1" vertex="1">
          <mxGeometry x="920" y="1046" width="30" height="30" as="geometry" />
        </mxCell>
        <mxCell id="sTs45CZRdDoFSn7NXeSg-15" value="" style="ellipse;html=1;shape=startState;fillColor=#000000;strokeColor=#ff0000;" parent="1" vertex="1">
          <mxGeometry x="170" y="1046" width="30" height="30" as="geometry" />
        </mxCell>
        <mxCell id="sTs45CZRdDoFSn7NXeSg-16" value="" style="edgeStyle=orthogonalEdgeStyle;html=1;verticalAlign=bottom;endArrow=open;endSize=8;strokeColor=#ff0000;rounded=0;entryX=0;entryY=0.5;entryDx=0;entryDy=0;" parent="1" source="sTs45CZRdDoFSn7NXeSg-15" target="sTs45CZRdDoFSn7NXeSg-7" edge="1">
          <mxGeometry relative="1" as="geometry">
            <mxPoint x="95" y="1146" as="targetPoint" />
          </mxGeometry>
        </mxCell>
        <mxCell id="sTs45CZRdDoFSn7NXeSg-17" value="" style="edgeStyle=orthogonalEdgeStyle;html=1;verticalAlign=bottom;endArrow=open;endSize=8;strokeColor=#ff0000;rounded=0;entryX=0;entryY=0.5;entryDx=0;entryDy=0;exitX=1;exitY=0.5;exitDx=0;exitDy=0;" parent="1" source="sTs45CZRdDoFSn7NXeSg-7" target="sTs45CZRdDoFSn7NXeSg-9" edge="1">
          <mxGeometry relative="1" as="geometry">
            <mxPoint x="274" y="1071" as="targetPoint" />
            <mxPoint x="204" y="1071" as="sourcePoint" />
          </mxGeometry>
        </mxCell>
        <mxCell id="sTs45CZRdDoFSn7NXeSg-18" value="" style="edgeStyle=orthogonalEdgeStyle;html=1;verticalAlign=bottom;endArrow=open;endSize=8;strokeColor=#ff0000;rounded=0;entryX=0;entryY=0.5;entryDx=0;entryDy=0;exitX=1;exitY=0.5;exitDx=0;exitDy=0;" parent="1" source="sTs45CZRdDoFSn7NXeSg-9" target="sTs45CZRdDoFSn7NXeSg-10" edge="1">
          <mxGeometry relative="1" as="geometry">
            <mxPoint x="404" y="1071" as="targetPoint" />
            <mxPoint x="424" y="1136" as="sourcePoint" />
          </mxGeometry>
        </mxCell>
        <mxCell id="sTs45CZRdDoFSn7NXeSg-19" value="" style="edgeStyle=orthogonalEdgeStyle;html=1;verticalAlign=bottom;endArrow=open;endSize=8;strokeColor=#ff0000;rounded=0;entryX=0;entryY=0.5;entryDx=0;entryDy=0;exitX=1;exitY=0.5;exitDx=0;exitDy=0;" parent="1" source="sTs45CZRdDoFSn7NXeSg-10" target="sTs45CZRdDoFSn7NXeSg-11" edge="1">
          <mxGeometry relative="1" as="geometry">
            <mxPoint x="529" y="1071" as="targetPoint" />
            <mxPoint x="514" y="1156" as="sourcePoint" />
          </mxGeometry>
        </mxCell>
        <mxCell id="sTs45CZRdDoFSn7NXeSg-20" value="" style="edgeStyle=orthogonalEdgeStyle;html=1;verticalAlign=bottom;endArrow=open;endSize=8;strokeColor=#ff0000;rounded=0;entryX=0;entryY=0.5;entryDx=0;entryDy=0;exitX=1;exitY=0.5;exitDx=0;exitDy=0;" parent="1" source="sTs45CZRdDoFSn7NXeSg-11" target="sTs45CZRdDoFSn7NXeSg-12" edge="1">
          <mxGeometry relative="1" as="geometry">
            <mxPoint x="654" y="1071" as="targetPoint" />
            <mxPoint x="654" y="1136" as="sourcePoint" />
          </mxGeometry>
        </mxCell>
        <mxCell id="sTs45CZRdDoFSn7NXeSg-21" value="" style="edgeStyle=orthogonalEdgeStyle;html=1;verticalAlign=bottom;endArrow=open;endSize=8;strokeColor=#ff0000;rounded=0;entryX=0;entryY=0.5;entryDx=0;entryDy=0;exitX=1;exitY=0.5;exitDx=0;exitDy=0;" parent="1" source="sTs45CZRdDoFSn7NXeSg-12" target="sTs45CZRdDoFSn7NXeSg-14" edge="1">
          <mxGeometry relative="1" as="geometry">
            <mxPoint x="785" y="1071" as="targetPoint" />
            <mxPoint x="770" y="1146" as="sourcePoint" />
          </mxGeometry>
        </mxCell>
        <mxCell id="sTs45CZRdDoFSn7NXeSg-22" value="进项发票" style="whiteSpace=wrap;html=1;rounded=1;aspect=fixed;fillColor=#d5e8d4;strokeColor=#82b366;" parent="1" vertex="1">
          <mxGeometry x="259" y="960" width="80" height="40" as="geometry" />
        </mxCell>
        <mxCell id="sTs45CZRdDoFSn7NXeSg-23" value="海关缴款书" style="whiteSpace=wrap;html=1;rounded=1;aspect=fixed;fillColor=#f5f5f5;fontColor=#333333;strokeColor=#666666;" parent="1" vertex="1">
          <mxGeometry x="390" y="960" width="80" height="40" as="geometry" />
        </mxCell>
        <mxCell id="sTs45CZRdDoFSn7NXeSg-24" value="代扣代缴&lt;br&gt;完税凭证" style="whiteSpace=wrap;html=1;rounded=1;aspect=fixed;fillColor=#f5f5f5;fontColor=#333333;strokeColor=#666666;" parent="1" vertex="1">
          <mxGeometry x="521" y="960" width="80" height="40" as="geometry" />
        </mxCell>
        <mxCell id="sTs45CZRdDoFSn7NXeSg-25" value="农产品发票" style="whiteSpace=wrap;html=1;rounded=1;aspect=fixed;fillColor=#f5f5f5;fontColor=#333333;strokeColor=#666666;" parent="1" vertex="1">
          <mxGeometry x="652" y="960" width="80" height="40" as="geometry" />
        </mxCell>
        <mxCell id="sTs45CZRdDoFSn7NXeSg-26" value="红字发票" style="whiteSpace=wrap;html=1;rounded=1;aspect=fixed;fillColor=#f5f5f5;fontColor=#333333;strokeColor=#666666;" parent="1" vertex="1">
          <mxGeometry x="783" y="960" width="80" height="40" as="geometry" />
        </mxCell>
        <mxCell id="sTs45CZRdDoFSn7NXeSg-30" value="进行中&lt;br&gt;zt=1" style="rounded=1;whiteSpace=wrap;html=1;fillColor=#fff2cc;strokeColor=#d6b656;" parent="1" vertex="1">
          <mxGeometry x="150" y="1290" width="80" height="40" as="geometry" />
        </mxCell>
        <mxCell id="sTs45CZRdDoFSn7NXeSg-31" value="成功&lt;br&gt;zt=3" style="rounded=1;whiteSpace=wrap;html=1;fillColor=#fff2cc;strokeColor=#d6b656;" parent="1" vertex="1">
          <mxGeometry x="150" y="1401" width="80" height="40" as="geometry" />
        </mxCell>
        <mxCell id="sTs45CZRdDoFSn7NXeSg-32" value="失败&lt;br&gt;zt=2" style="rounded=1;whiteSpace=wrap;html=1;fillColor=#fff2cc;strokeColor=#d6b656;" parent="1" vertex="1">
          <mxGeometry x="265" y="1400" width="80" height="40" as="geometry" />
        </mxCell>
        <mxCell id="sTs45CZRdDoFSn7NXeSg-35" value="" style="ellipse;html=1;shape=endState;fillColor=#000000;strokeColor=#ff0000;" parent="1" vertex="1">
          <mxGeometry x="175" y="1489" width="30" height="30" as="geometry" />
        </mxCell>
        <mxCell id="sTs45CZRdDoFSn7NXeSg-36" value="" style="ellipse;html=1;shape=startState;fillColor=#000000;strokeColor=#ff0000;" parent="1" vertex="1">
          <mxGeometry x="175" y="1206" width="30" height="30" as="geometry" />
        </mxCell>
        <mxCell id="sTs45CZRdDoFSn7NXeSg-37" value="" style="edgeStyle=orthogonalEdgeStyle;html=1;verticalAlign=bottom;endArrow=open;endSize=8;strokeColor=#ff0000;rounded=0;entryX=0.5;entryY=0;entryDx=0;entryDy=0;" parent="1" source="sTs45CZRdDoFSn7NXeSg-36" target="sTs45CZRdDoFSn7NXeSg-30" edge="1">
          <mxGeometry relative="1" as="geometry">
            <mxPoint x="93" y="1265" as="targetPoint" />
          </mxGeometry>
        </mxCell>
        <mxCell id="NtjbMHKrXhSSU9uYyu6V-6" value="启动任务" style="edgeLabel;html=1;align=center;verticalAlign=middle;resizable=0;points=[];" vertex="1" connectable="0" parent="sTs45CZRdDoFSn7NXeSg-37">
          <mxGeometry x="-0.4" y="1" relative="1" as="geometry">
            <mxPoint y="4" as="offset" />
          </mxGeometry>
        </mxCell>
        <mxCell id="sTs45CZRdDoFSn7NXeSg-38" value="" style="edgeStyle=orthogonalEdgeStyle;html=1;verticalAlign=bottom;endArrow=open;endSize=8;strokeColor=#ff0000;rounded=0;entryX=0.5;entryY=0;entryDx=0;entryDy=0;exitX=0.5;exitY=1;exitDx=0;exitDy=0;" parent="1" source="sTs45CZRdDoFSn7NXeSg-30" target="sTs45CZRdDoFSn7NXeSg-31" edge="1">
          <mxGeometry relative="1" as="geometry">
            <mxPoint x="272" y="1190" as="targetPoint" />
            <mxPoint x="202" y="1190" as="sourcePoint" />
            <Array as="points">
              <mxPoint x="190" y="1370" />
              <mxPoint x="190" y="1370" />
            </Array>
          </mxGeometry>
        </mxCell>
        <mxCell id="NtjbMHKrXhSSU9uYyu6V-7" value="结束任务&lt;br&gt;[没有异常]" style="edgeLabel;html=1;align=center;verticalAlign=middle;resizable=0;points=[];" vertex="1" connectable="0" parent="sTs45CZRdDoFSn7NXeSg-38">
          <mxGeometry x="-0.2393" y="1" relative="1" as="geometry">
            <mxPoint as="offset" />
          </mxGeometry>
        </mxCell>
        <mxCell id="sTs45CZRdDoFSn7NXeSg-42" value="" style="edgeStyle=orthogonalEdgeStyle;html=1;verticalAlign=bottom;endArrow=open;endSize=8;strokeColor=#ff0000;rounded=0;entryX=0.5;entryY=0;entryDx=0;entryDy=0;exitX=0.5;exitY=1;exitDx=0;exitDy=0;" parent="1" source="sTs45CZRdDoFSn7NXeSg-31" target="sTs45CZRdDoFSn7NXeSg-35" edge="1">
          <mxGeometry relative="1" as="geometry">
            <mxPoint x="783" y="1161" as="targetPoint" />
            <mxPoint x="861" y="1151" as="sourcePoint" />
            <Array as="points">
              <mxPoint x="190" y="1461" />
              <mxPoint x="190" y="1461" />
            </Array>
          </mxGeometry>
        </mxCell>
        <mxCell id="sTs45CZRdDoFSn7NXeSg-44" style="edgeStyle=orthogonalEdgeStyle;html=1;entryX=0.5;entryY=0;labelBackgroundColor=none;endArrow=open;endSize=8;strokeColor=#ff0000;fontFamily=Verdana;fontSize=12;align=left;exitX=1;exitY=0.5;exitDx=0;exitDy=0;entryDx=0;entryDy=0;" parent="1" source="sTs45CZRdDoFSn7NXeSg-30" target="sTs45CZRdDoFSn7NXeSg-32" edge="1">
          <mxGeometry relative="1" as="geometry">
            <mxPoint x="518" y="1225" as="sourcePoint" />
            <Array as="points">
              <mxPoint x="305" y="1310" />
            </Array>
            <mxPoint x="348" y="1275" as="targetPoint" />
          </mxGeometry>
        </mxCell>
        <mxCell id="NtjbMHKrXhSSU9uYyu6V-8" value="异常处理&lt;br&gt;[出现异常]" style="edgeLabel;html=1;align=center;verticalAlign=middle;resizable=0;points=[];" vertex="1" connectable="0" parent="sTs45CZRdDoFSn7NXeSg-44">
          <mxGeometry x="0.4513" y="3" relative="1" as="geometry">
            <mxPoint as="offset" />
          </mxGeometry>
        </mxCell>
        <mxCell id="sTs45CZRdDoFSn7NXeSg-45" value="" style="edgeStyle=orthogonalEdgeStyle;html=1;verticalAlign=bottom;endArrow=open;endSize=8;strokeColor=#ff0000;rounded=1;entryX=1;entryY=0.5;entryDx=0;entryDy=0;exitX=0.576;exitY=1.07;exitDx=0;exitDy=0;exitPerimeter=0;" parent="1" source="sTs45CZRdDoFSn7NXeSg-32" target="sTs45CZRdDoFSn7NXeSg-35" edge="1">
          <mxGeometry relative="1" as="geometry">
            <mxPoint x="928" y="1161" as="targetPoint" />
            <mxPoint x="613" y="1161" as="sourcePoint" />
            <Array as="points">
              <mxPoint x="311" y="1504" />
            </Array>
          </mxGeometry>
        </mxCell>
        <mxCell id="sTs45CZRdDoFSn7NXeSg-46" value="未勾选&lt;br&gt;gxztDm=0" style="rounded=1;whiteSpace=wrap;html=1;fillColor=#fff2cc;strokeColor=#d6b656;" parent="1" vertex="1">
          <mxGeometry x="520" y="1290" width="80" height="40" as="geometry" />
        </mxCell>
        <mxCell id="sTs45CZRdDoFSn7NXeSg-47" value="已勾选&lt;br&gt;gxztDm=1" style="rounded=1;whiteSpace=wrap;html=1;fillColor=#fff2cc;strokeColor=#d6b656;" parent="1" vertex="1">
          <mxGeometry x="520" y="1391" width="80" height="40" as="geometry" />
        </mxCell>
        <mxCell id="sTs45CZRdDoFSn7NXeSg-49" value="" style="ellipse;html=1;shape=startState;fillColor=#000000;strokeColor=#ff0000;" parent="1" vertex="1">
          <mxGeometry x="545" y="1206" width="30" height="30" as="geometry" />
        </mxCell>
        <mxCell id="sTs45CZRdDoFSn7NXeSg-50" value="" style="edgeStyle=orthogonalEdgeStyle;html=1;verticalAlign=bottom;endArrow=open;endSize=8;strokeColor=#ff0000;rounded=0;entryX=0.5;entryY=0;entryDx=0;entryDy=0;" parent="1" source="sTs45CZRdDoFSn7NXeSg-49" target="sTs45CZRdDoFSn7NXeSg-46" edge="1">
          <mxGeometry relative="1" as="geometry">
            <mxPoint x="463" y="1265" as="targetPoint" />
          </mxGeometry>
        </mxCell>
        <mxCell id="NtjbMHKrXhSSU9uYyu6V-2" value="发起勾选" style="edgeLabel;html=1;align=center;verticalAlign=middle;resizable=0;points=[];" vertex="1" connectable="0" parent="sTs45CZRdDoFSn7NXeSg-50">
          <mxGeometry x="-0.363" y="-2" relative="1" as="geometry">
            <mxPoint y="3" as="offset" />
          </mxGeometry>
        </mxCell>
        <mxCell id="sTs45CZRdDoFSn7NXeSg-51" value="" style="edgeStyle=orthogonalEdgeStyle;html=1;verticalAlign=bottom;endArrow=open;endSize=8;strokeColor=#ff0000;rounded=1;entryX=1;entryY=0.5;entryDx=0;entryDy=0;exitX=1;exitY=0.5;exitDx=0;exitDy=0;" parent="1" source="sTs45CZRdDoFSn7NXeSg-46" target="sTs45CZRdDoFSn7NXeSg-47" edge="1">
          <mxGeometry relative="1" as="geometry">
            <mxPoint x="642" y="1190" as="targetPoint" />
            <mxPoint x="572" y="1190" as="sourcePoint" />
            <Array as="points">
              <mxPoint x="620" y="1310" />
              <mxPoint x="620" y="1411" />
            </Array>
          </mxGeometry>
        </mxCell>
        <mxCell id="NtjbMHKrXhSSU9uYyu6V-3" value="提交勾选" style="edgeLabel;html=1;align=center;verticalAlign=middle;resizable=0;points=[];" vertex="1" connectable="0" parent="sTs45CZRdDoFSn7NXeSg-51">
          <mxGeometry x="0.0557" y="1" relative="1" as="geometry">
            <mxPoint x="-6" y="-14" as="offset" />
          </mxGeometry>
        </mxCell>
        <mxCell id="NtjbMHKrXhSSU9uYyu6V-4" value="" style="edgeStyle=orthogonalEdgeStyle;html=1;verticalAlign=bottom;endArrow=open;endSize=8;strokeColor=#ff0000;rounded=1;entryX=0;entryY=0.5;entryDx=0;entryDy=0;exitX=0;exitY=0.5;exitDx=0;exitDy=0;" edge="1" parent="1" source="sTs45CZRdDoFSn7NXeSg-47" target="sTs45CZRdDoFSn7NXeSg-46">
          <mxGeometry relative="1" as="geometry">
            <mxPoint x="470" y="1280" as="targetPoint" />
            <mxPoint x="470" y="1450" as="sourcePoint" />
            <Array as="points">
              <mxPoint x="500" y="1411" />
              <mxPoint x="500" y="1310" />
            </Array>
          </mxGeometry>
        </mxCell>
        <mxCell id="NtjbMHKrXhSSU9uYyu6V-5" value="撤销勾选" style="edgeLabel;html=1;align=center;verticalAlign=middle;resizable=0;points=[];" vertex="1" connectable="0" parent="NtjbMHKrXhSSU9uYyu6V-4">
          <mxGeometry x="0.0557" y="1" relative="1" as="geometry">
            <mxPoint x="1" y="15" as="offset" />
          </mxGeometry>
        </mxCell>
        <mxCell id="NtjbMHKrXhSSU9uYyu6V-9" value="未统计&lt;br&gt;gxztDm=0" style="rounded=1;whiteSpace=wrap;html=1;fillColor=#fff2cc;strokeColor=#d6b656;" vertex="1" parent="1">
          <mxGeometry x="640" y="1480" width="80" height="40" as="geometry" />
        </mxCell>
        <mxCell id="NtjbMHKrXhSSU9uYyu6V-10" value="已统计&lt;br&gt;gxztDm=1" style="rounded=1;whiteSpace=wrap;html=1;fillColor=#fff2cc;strokeColor=#d6b656;" vertex="1" parent="1">
          <mxGeometry x="640" y="1581" width="80" height="40" as="geometry" />
        </mxCell>
        <mxCell id="NtjbMHKrXhSSU9uYyu6V-13" value="" style="edgeStyle=orthogonalEdgeStyle;html=1;verticalAlign=bottom;endArrow=open;endSize=8;strokeColor=#ff0000;rounded=1;entryX=0.5;entryY=0;entryDx=0;entryDy=0;exitX=0.5;exitY=1;exitDx=0;exitDy=0;" edge="1" parent="1" source="sTs45CZRdDoFSn7NXeSg-47" target="NtjbMHKrXhSSU9uYyu6V-9">
          <mxGeometry relative="1" as="geometry">
            <mxPoint x="559" y="1275" as="targetPoint" />
            <mxPoint x="801" y="1236" as="sourcePoint" />
          </mxGeometry>
        </mxCell>
        <mxCell id="NtjbMHKrXhSSU9uYyu6V-14" value="发起申请申请" style="edgeLabel;html=1;align=center;verticalAlign=middle;resizable=0;points=[];" vertex="1" connectable="0" parent="NtjbMHKrXhSSU9uYyu6V-13">
          <mxGeometry x="-0.363" y="-2" relative="1" as="geometry">
            <mxPoint x="21" y="7" as="offset" />
          </mxGeometry>
        </mxCell>
        <mxCell id="NtjbMHKrXhSSU9uYyu6V-15" value="" style="edgeStyle=orthogonalEdgeStyle;html=1;verticalAlign=bottom;endArrow=open;endSize=8;strokeColor=#ff0000;rounded=1;exitX=0;exitY=0.5;exitDx=0;exitDy=0;entryX=0;entryY=0.5;entryDx=0;entryDy=0;" edge="1" parent="1" source="NtjbMHKrXhSSU9uYyu6V-10" target="NtjbMHKrXhSSU9uYyu6V-9">
          <mxGeometry relative="1" as="geometry">
            <mxPoint x="559" y="1480" as="targetPoint" />
            <mxPoint x="774" y="1450" as="sourcePoint" />
            <Array as="points">
              <mxPoint x="620" y="1601" />
              <mxPoint x="620" y="1500" />
            </Array>
          </mxGeometry>
        </mxCell>
        <mxCell id="NtjbMHKrXhSSU9uYyu6V-16" value="撤销统计申请" style="edgeLabel;html=1;align=center;verticalAlign=middle;resizable=0;points=[];" vertex="1" connectable="0" parent="NtjbMHKrXhSSU9uYyu6V-15">
          <mxGeometry x="0.0557" y="1" relative="1" as="geometry">
            <mxPoint y="13" as="offset" />
          </mxGeometry>
        </mxCell>
        <mxCell id="NtjbMHKrXhSSU9uYyu6V-18" value="" style="edgeStyle=orthogonalEdgeStyle;html=1;verticalAlign=bottom;endArrow=open;endSize=8;strokeColor=#ff0000;rounded=1;entryX=1;entryY=0.5;entryDx=0;entryDy=0;exitX=1;exitY=0.5;exitDx=0;exitDy=0;" edge="1" parent="1" source="NtjbMHKrXhSSU9uYyu6V-9" target="NtjbMHKrXhSSU9uYyu6V-10">
          <mxGeometry relative="1" as="geometry">
            <mxPoint x="739" y="1560" as="targetPoint" />
            <mxPoint x="869" y="1480" as="sourcePoint" />
            <Array as="points">
              <mxPoint x="740" y="1500" />
              <mxPoint x="740" y="1601" />
            </Array>
          </mxGeometry>
        </mxCell>
        <mxCell id="NtjbMHKrXhSSU9uYyu6V-19" value="提交统计申请" style="edgeLabel;html=1;align=center;verticalAlign=middle;resizable=0;points=[];" vertex="1" connectable="0" parent="NtjbMHKrXhSSU9uYyu6V-18">
          <mxGeometry x="0.0557" y="1" relative="1" as="geometry">
            <mxPoint x="-1" y="-14" as="offset" />
          </mxGeometry>
        </mxCell>
        <mxCell id="NtjbMHKrXhSSU9uYyu6V-21" value="未确认&lt;br&gt;gxztDm=0" style="rounded=1;whiteSpace=wrap;html=1;fillColor=#fff2cc;strokeColor=#d6b656;" vertex="1" parent="1">
          <mxGeometry x="761" y="1656" width="80" height="40" as="geometry" />
        </mxCell>
        <mxCell id="NtjbMHKrXhSSU9uYyu6V-22" value="已确认&lt;br&gt;gxztDm=1" style="rounded=1;whiteSpace=wrap;html=1;fillColor=#fff2cc;strokeColor=#d6b656;" vertex="1" parent="1">
          <mxGeometry x="761" y="1757" width="80" height="40" as="geometry" />
        </mxCell>
        <mxCell id="NtjbMHKrXhSSU9uYyu6V-23" value="" style="ellipse;html=1;shape=endState;fillColor=#000000;strokeColor=#ff0000;" vertex="1" parent="1">
          <mxGeometry x="786" y="1865" width="30" height="30" as="geometry" />
        </mxCell>
        <mxCell id="NtjbMHKrXhSSU9uYyu6V-25" value="" style="edgeStyle=orthogonalEdgeStyle;html=1;verticalAlign=bottom;endArrow=open;endSize=8;strokeColor=#ff0000;rounded=1;entryX=0.5;entryY=0;entryDx=0;entryDy=0;exitX=0.5;exitY=1;exitDx=0;exitDy=0;" edge="1" parent="1" source="NtjbMHKrXhSSU9uYyu6V-10" target="NtjbMHKrXhSSU9uYyu6V-21">
          <mxGeometry relative="1" as="geometry">
            <mxPoint x="578" y="1688" as="targetPoint" />
            <mxPoint x="820" y="1649" as="sourcePoint" />
          </mxGeometry>
        </mxCell>
        <mxCell id="NtjbMHKrXhSSU9uYyu6V-26" value="发起申请" style="edgeLabel;html=1;align=center;verticalAlign=middle;resizable=0;points=[];" vertex="1" connectable="0" parent="NtjbMHKrXhSSU9uYyu6V-25">
          <mxGeometry x="-0.363" y="-2" relative="1" as="geometry">
            <mxPoint x="1" y="8" as="offset" />
          </mxGeometry>
        </mxCell>
        <mxCell id="NtjbMHKrXhSSU9uYyu6V-27" value="" style="edgeStyle=orthogonalEdgeStyle;html=1;verticalAlign=bottom;endArrow=open;endSize=8;strokeColor=#ff0000;rounded=1;exitX=0;exitY=0.5;exitDx=0;exitDy=0;entryX=0;entryY=0.5;entryDx=0;entryDy=0;" edge="1" parent="1" source="NtjbMHKrXhSSU9uYyu6V-22" target="NtjbMHKrXhSSU9uYyu6V-21">
          <mxGeometry relative="1" as="geometry">
            <mxPoint x="680" y="1656" as="targetPoint" />
            <mxPoint x="895" y="1626" as="sourcePoint" />
            <Array as="points">
              <mxPoint x="741" y="1777" />
              <mxPoint x="741" y="1676" />
            </Array>
          </mxGeometry>
        </mxCell>
        <mxCell id="NtjbMHKrXhSSU9uYyu6V-28" value="撤销确认申请" style="edgeLabel;html=1;align=center;verticalAlign=middle;resizable=0;points=[];" vertex="1" connectable="0" parent="NtjbMHKrXhSSU9uYyu6V-27">
          <mxGeometry x="0.0557" y="1" relative="1" as="geometry">
            <mxPoint y="17" as="offset" />
          </mxGeometry>
        </mxCell>
        <mxCell id="NtjbMHKrXhSSU9uYyu6V-29" value="" style="edgeStyle=orthogonalEdgeStyle;html=1;verticalAlign=bottom;endArrow=open;endSize=8;strokeColor=#ff0000;rounded=0;entryX=0.5;entryY=0;entryDx=0;entryDy=0;exitX=0.5;exitY=1;exitDx=0;exitDy=0;" edge="1" parent="1" source="NtjbMHKrXhSSU9uYyu6V-22" target="NtjbMHKrXhSSU9uYyu6V-23">
          <mxGeometry relative="1" as="geometry">
            <mxPoint x="1249" y="1537" as="targetPoint" />
            <mxPoint x="1327" y="1527" as="sourcePoint" />
            <Array as="points">
              <mxPoint x="801" y="1826" />
              <mxPoint x="801" y="1826" />
            </Array>
          </mxGeometry>
        </mxCell>
        <mxCell id="NtjbMHKrXhSSU9uYyu6V-30" value="" style="edgeStyle=orthogonalEdgeStyle;html=1;verticalAlign=bottom;endArrow=open;endSize=8;strokeColor=#ff0000;rounded=1;entryX=1;entryY=0.5;entryDx=0;entryDy=0;exitX=1;exitY=0.5;exitDx=0;exitDy=0;" edge="1" parent="1" source="NtjbMHKrXhSSU9uYyu6V-21" target="NtjbMHKrXhSSU9uYyu6V-22">
          <mxGeometry relative="1" as="geometry">
            <mxPoint x="860" y="1736" as="targetPoint" />
            <mxPoint x="990" y="1656" as="sourcePoint" />
            <Array as="points">
              <mxPoint x="861" y="1676" />
              <mxPoint x="861" y="1777" />
            </Array>
          </mxGeometry>
        </mxCell>
        <mxCell id="NtjbMHKrXhSSU9uYyu6V-31" value="提交确认申请" style="edgeLabel;html=1;align=center;verticalAlign=middle;resizable=0;points=[];" vertex="1" connectable="0" parent="NtjbMHKrXhSSU9uYyu6V-30">
          <mxGeometry x="0.0557" y="1" relative="1" as="geometry">
            <mxPoint y="-20" as="offset" />
          </mxGeometry>
        </mxCell>
        <mxCell id="NtjbMHKrXhSSU9uYyu6V-32" value="" style="edgeStyle=orthogonalEdgeStyle;html=1;verticalAlign=bottom;endArrow=open;endSize=8;strokeColor=#ff0000;rounded=1;exitX=0;exitY=0.5;exitDx=0;exitDy=0;entryX=0;entryY=0.5;entryDx=0;entryDy=0;" edge="1" parent="1" source="NtjbMHKrXhSSU9uYyu6V-22" target="NtjbMHKrXhSSU9uYyu6V-9">
          <mxGeometry relative="1" as="geometry">
            <mxPoint x="545" y="1656" as="targetPoint" />
            <mxPoint x="545" y="1757" as="sourcePoint" />
            <Array as="points">
              <mxPoint x="560" y="1777" />
              <mxPoint x="560" y="1500" />
            </Array>
          </mxGeometry>
        </mxCell>
        <mxCell id="NtjbMHKrXhSSU9uYyu6V-33" value="撤销统计申请" style="edgeLabel;html=1;align=center;verticalAlign=middle;resizable=0;points=[];" vertex="1" connectable="0" parent="NtjbMHKrXhSSU9uYyu6V-32">
          <mxGeometry x="0.0557" y="1" relative="1" as="geometry">
            <mxPoint y="13" as="offset" />
          </mxGeometry>
        </mxCell>
      </root>
    </mxGraphModel>
  </diagram>
</mxfile>
